<?xml version="1.0" standalone="no"?><!DOCTYPE svg PUBLIC "-//W3C//DTD SVG 1.1//EN" "http://www.w3.org/Graphics/SVG/1.1/DTD/svg11.dtd"><svg t="1578302641829" class="icon" viewBox="0 0 1024 1024" version="1.1" xmlns="http://www.w3.org/2000/svg" p-id="4766" xmlns:xlink="http://www.w3.org/1999/xlink" width="16" height="16"><path d="M866.166 116.167v791.667H157.833V116.167h708.333m0-83.334H157.833c-46.021 0-83.333 37.313-83.333 83.333v791.667c0 46.02 37.313 83.333 83.333 83.333h708.333c46.021 0 83.334-37.313 83.334-83.333V116.167c0-46.021-37.313-83.334-83.334-83.334z" p-id="4767"></path><path d="M743.771 323.381h-250c-23.011 0-41.667-18.656-41.667-41.667s18.656-41.667 41.667-41.667h250c23.01 0 41.667 18.656 41.667 41.667s-18.658 41.667-41.667 41.667zM342.729 323.381h-62.5c-23.01 0-41.666-18.656-41.666-41.667s18.656-41.667 41.666-41.667h62.5c23.011 0 41.667 18.656 41.667 41.667s-18.657 41.667-41.667 41.667zM743.771 535.092h-250c-23.011 0-41.667-18.656-41.667-41.667 0-23.01 18.656-41.666 41.667-41.666h250c23.01 0 41.667 18.656 41.667 41.666 0 23.011-18.658 41.667-41.667 41.667zM342.729 535.092h-62.5c-23.01 0-41.666-18.656-41.666-41.667 0-23.01 18.656-41.666 41.666-41.666h62.5c23.011 0 41.667 18.656 41.667 41.666 0 23.011-18.657 41.667-41.667 41.667zM743.771 746.803h-250c-23.011 0-41.667-18.657-41.667-41.667 0-23.011 18.656-41.667 41.667-41.667h250c23.01 0 41.667 18.656 41.667 41.667 0 23.01-18.658 41.667-41.667 41.667zM342.729 746.803h-62.5c-23.01 0-41.666-18.657-41.666-41.667 0-23.011 18.656-41.667 41.666-41.667h62.5c23.011 0 41.667 18.656 41.667 41.667 0 23.01-18.657 41.667-41.667 41.667z" p-id="4768"></path></svg>