<?xml version="1.0" standalone="no"?><!DOCTYPE svg PUBLIC "-//W3C//DTD SVG 1.1//EN" "http://www.w3.org/Graphics/SVG/1.1/DTD/svg11.dtd"><svg t="1575818483049" class="icon" viewBox="0 0 1024 1024" version="1.1" xmlns="http://www.w3.org/2000/svg" p-id="1419" xmlns:xlink="http://www.w3.org/1999/xlink" width="200" height="200"><defs><style type="text/css"></style></defs><path d="M107.79 107.79h592.842v53.894h107.79V53.894A53.895 53.895 0 0 0 754.525 0H53.895A53.895 53.895 0 0 0 0 53.895v700.631a53.895 53.895 0 0 0 53.895 53.895h107.79v-107.79h-53.896V107.79z m862.315 107.789A53.895 53.895 0 0 1 1024 269.474v700.631A53.895 53.895 0 0 1 970.105 1024H269.474a53.895 53.895 0 0 1-53.895-53.895V269.474a53.895 53.895 0 0 1 53.895-53.895h700.631z m-646.737 107.79V916.21h592.843V323.368H323.368z" p-id="1420"></path></svg>